<svg width="350" height="78" viewBox="0 0 350 78" fill="none" xmlns="http://www.w3.org/2000/svg">
<path d="M47.1719 47.8122L44.9307 71.5049L0 75.0268C0.213447 62.6112 0.444679 50.2669 0.693704 37.9936C0.978298 25.7204 1.31626 13.3761 1.70758 0.960513H29.4557C28.6376 8.75134 27.8549 16.5422 27.1078 24.333C26.3608 32.0882 25.8271 39.9147 25.507 47.8122C27.1789 47.8833 28.8332 47.9189 30.4696 47.9189C32.1061 47.9189 33.7603 47.9189 35.4323 47.9189C37.4244 47.9189 39.3811 47.9012 41.3021 47.8656C43.2231 47.83 45.1797 47.8122 47.1719 47.8122ZM78.4953 3.09499L72.6255 75.7738L50.1068 76.9478V4.58912L78.4953 3.09499ZM154.803 1.70758L150.961 74.0663L123 76.6276L108.058 37.8869L105.71 77.3747H81.697L83.618 1.70758L110.299 0.426895L128.763 38.8474L129.616 2.56137L154.803 1.70758ZM215.582 1.92103L215.048 24.5465L199.146 25.1868L195.091 75.7738L172.572 76.9478L172.679 26.3608L156.777 27.2145L157.417 2.02775L215.582 1.92103ZM281.056 26.7877C281.056 29.5625 280.808 32.0882 280.31 34.365C279.848 36.6062 279.1 38.6696 278.068 40.555C277.037 42.4404 275.703 44.1836 274.066 45.7845C272.43 47.3853 270.456 48.9151 268.144 50.3736L280.843 72.999L256.831 77.6949L248.612 54.9627L241.996 55.1762L241.036 77.3747H218.089C218.268 69.2637 218.428 61.1883 218.57 53.1484C218.748 45.1085 218.943 37.0331 219.157 28.9221C219.228 24.831 219.299 20.7755 219.37 16.7556C219.442 12.7357 219.584 8.68022 219.797 4.58912C222.288 3.66418 224.742 2.89932 227.162 2.29456C229.581 1.68979 231.999 1.22732 234.419 0.907152C236.873 0.551403 239.345 0.320171 241.836 0.213447C244.361 0.0711489 246.941 0 249.574 0C253.629 0 257.542 0.569196 261.313 1.70758C265.12 2.81039 268.481 4.4824 271.398 6.72359C274.316 8.96479 276.646 11.7574 278.389 15.1014C280.168 18.4454 281.056 22.3409 281.056 26.7877ZM257.15 28.4952C257.15 27.0011 256.937 25.6314 256.51 24.3864C256.119 23.1413 255.514 22.074 254.697 21.1847C253.914 20.2597 252.917 19.5482 251.708 19.0502C250.533 18.5166 249.147 18.2498 247.545 18.2498C246.834 18.2498 246.141 18.3031 245.465 18.4098C244.788 18.481 244.13 18.6055 243.49 18.7834L242.636 38.634H243.917C245.447 38.634 246.995 38.4383 248.56 38.047C250.16 37.6557 251.584 37.0509 252.828 36.2327C254.109 35.4145 255.141 34.365 255.923 33.0844C256.741 31.8037 257.15 30.2739 257.15 28.4952ZM350 40.555C350 43.7923 349.627 46.9228 348.88 49.9467C348.133 52.935 347.048 55.7454 345.625 58.3779C344.237 61.0104 342.529 63.4295 340.502 65.6351C338.51 67.8052 336.251 69.6728 333.725 71.2381C331.235 72.8033 328.513 74.0307 325.561 74.92C322.608 75.7738 319.477 76.2007 316.169 76.2007C312.968 76.2007 309.908 75.7916 306.991 74.9734C304.109 74.1552 301.406 73.0168 298.88 71.5583C296.354 70.0641 294.06 68.2854 291.996 66.2221C289.968 64.1232 288.225 61.8108 286.767 59.285C285.343 56.7237 284.223 53.9844 283.404 51.0673C282.622 48.1502 282.231 45.1085 282.231 41.9424C282.231 38.8474 282.604 35.8236 283.351 32.8709C284.099 29.8826 285.166 27.0722 286.553 24.4397C287.976 21.8072 289.684 19.3881 291.676 17.1825C293.668 14.9769 295.892 13.0737 298.346 11.4728C300.836 9.87194 303.522 8.62686 306.404 7.73747C309.285 6.8481 312.327 6.40342 315.529 6.40342C320.687 6.40342 325.383 7.20385 329.617 8.80471C333.886 10.4056 337.514 12.7001 340.502 15.6884C343.526 18.641 345.856 22.2341 347.492 26.4675C349.164 30.6653 350 35.3612 350 40.555ZM326.307 41.9424C326.307 40.4127 326.077 38.9364 325.614 37.5134C325.187 36.0549 324.547 34.7742 323.693 33.6713C322.839 32.533 321.772 31.6258 320.491 30.9499C319.246 30.2384 317.805 29.8826 316.169 29.8826C314.497 29.8826 313.003 30.1851 311.687 30.7898C310.37 31.3945 309.232 32.2306 308.272 33.2978C307.346 34.3294 306.635 35.5568 306.137 36.9798C305.639 38.3672 305.389 39.8435 305.389 41.4088C305.389 42.9029 305.603 44.3971 306.03 45.8912C306.457 47.3853 307.097 48.7371 307.951 49.9467C308.805 51.1563 309.855 52.1345 311.1 52.8816C312.38 53.6287 313.857 54.0022 315.529 54.0022C317.201 54.0022 318.695 53.682 320.011 53.0417C321.363 52.3657 322.501 51.4764 323.427 50.3736C324.351 49.2352 325.062 47.9367 325.561 46.4782C326.059 45.0196 326.307 43.5077 326.307 41.9424Z" fill="white"/>
</svg>
